#!OML:ASF F:\VICON\USERDATA\INSTALL\rory3\rory3.ASF
:FULLY-SPECIFIED
:DEGREES
592
root -1.88324 16.7025 22.9824 -159.065 -18.1261 -180.81
lowerback -18.161 -4.68472 -2.18162
upperback -9.97669 -7.53159 1.11184
thorax -0.204862 -4.38044 1.06079
lowerneck 4.01701 2.81883 -0.409992
upperneck 32.6256 -2.4023 3.51385
head 9.74494 -2.85536 0.81288
rclavicle 2.92586e-014 1.38652e-014
rhumerus 72.2021 -9.83759 -63.1935
rradius 68.0202
rwrist -99.2
rhand -1.33355 3.09935
rfingers 7.12502
rthumb 24.3125 -25.3788
lclavicle 2.92586e-014 1.38652e-014
lhumerus 69.0842 10.0362 40.3899
lradius 74.3145
lwrist 70.6243
lhand 0.526892 18.9024
lfingers 7.12502
lthumb 26.0949 47.1297
rfemur 112.046 -193.002 -183.269
rtibia 43.28
rfoot -62.4017 1.53837
rtoes 62.4369
lfemur -25.481 -0.0374335 -34.0305
ltibia 31.6081
lfoot -39.401 25.4381
ltoes -6.5124
593
root -1.8798 16.7004 22.9792 -159.316 -18.0911 -180.823
lowerback -18.479 -4.79484 -2.45713
upperback -9.86225 -7.61351 1.12896
thorax 0.115165 -4.40896 1.16977
lowerneck 3.49981 2.8194 -0.394635
upperneck 33.0077 -2.47654 3.5744
head 9.98783 -2.8861 0.815891
rclavicle -1.28216e-014 8.05078e-015
rhumerus 70.1158 -10.3287 -60.4712
rradius 70.4823
rwrist -97.2896
rhand -2.01507 3.10118
rfingers 7.12502
rthumb 23.6589 -25.463
lclavicle -1.28216e-014 8.05078e-015
lhumerus 66.9863 9.93171 38.9787
lradius 77.8846
lwrist 68.3514
lhand -1.04246 19.4163
lfingers 7.12502
lthumb 24.5915 47.8568
rfemur 112.272 -193.073 -183.062
rtibia 43.3247
rfoot -62.162 2.51525
rtoes 62.5866
lfemur -25.1846 0.0618399 -34.0596
ltibia 31.5543
lfoot -39.6193 25.9308
ltoes -7.13697
594
root -1.88313 16.7028 22.9753 -159.583 -18.0949 -180.741
lowerback -18.7618 -4.80092 -2.58613
upperback -10.0201 -7.64922 1.08591
thorax 0.0955996 -4.44486 1.17187
lowerneck 3.92387 2.84905 -0.198473
upperneck 33.2849 -2.65878 3.64282
head 10.0263 -3.01129 0.78516
rclavicle 9.72057e-014 4.19436e-014
rhumerus 67.4463 -10.5472 -57.8328
rradius 72.9575
rwrist -94.579
rhand -2.47011 3.12856
rfingers 7.12502
rthumb 23.2224 -25.4913
lclavicle 9.72057e-014 4.19436e-014
lhumerus 64.5291 9.23749 37.0995
lradius 81.0329
lwrist 64.9097
lhand -2.46238 19.5819
lfingers 7.12502
lthumb 23.2298 48.2008
rfemur 112.433 -193.128 -182.782
rtibia 43.4558
rfoot -61.9284 2.57328
rtoes 62.7312
lfemur -24.8219 0.0200977 -33.986
ltibia 31.3613
lfoot -40.1994 26.8762
ltoes -8.05887
595
root -1.89294 16.7132 22.9679 -159.864 -18.1868 -180.761
lowerback -19.0198 -4.81917 -2.73844
upperback -10.3076 -7.73036 1.01288
thorax -0.0785823 -4.51427 1.16046
lowerneck 4.73952 2.94638 -0.0719939
upperneck 33.5246 -2.80448 3.74579
head 9.9805 -3.15513 0.783624
rclavicle -9.77524e-014 -3.96575e-014
rhumerus 64.4374 -10.3795 -55.0877
rradius 75.394
rwrist -90.9255
rhand -2.57822 3.55613
rfingers 7.12502
rthumb 23.1187 -25.0768
lclavicle -9.77524e-014 -3.96575e-014
lhumerus 61.8411 8.23995 35.0178
lradius 83.9959
lwrist 60.5562
lhand -3.7766 19.3391
lfingers 7.12502
lthumb 21.9685 48.1116
rfemur 112.691 -193.068 -182.571
rtibia 43.6698
rfoot -61.6896 1.61798
rtoes 62.8071
lfemur -24.2753 -0.135844 -33.9822
ltibia 31.0559
lfoot -40.7925 27.0683
ltoes -7.30543
596
root -1.89709 16.7155 22.9583 -159.95 -18.2437 -181.07
lowerback -19.3778 -4.89248 -3.28015
upperback -10.5658 -7.81439 0.94099
thorax -0.130484 -4.57032 1.34838
lowerneck 5.09516 3.02176 -0.135743
upperneck 33.9823 -2.98327 3.88334
head 10.1045 -3.31851 0.819844
rclavicle -3.63155e-014 -4.01545e-014
rhumerus 61.3454 -10.1092 -52.1436
rradius 77.9283
rwrist -86.6884
rhand -2.38908 5.00992
rfingers 7.12502
rthumb 23.3002 -23.6001
lclavicle -3.63155e-014 -4.01545e-014
lhumerus 59.2456 7.19799 33.1397
lradius 87.0317
lwrist 55.4943
lhand -5.47852 19.4183
lfingers 7.12502
lthumb 20.3336 48.3739
rfemur 112.827 -192.862 -182.677
rtibia 43.8862
rfoot -61.4466 0.302398
rtoes 62.6821
lfemur -23.8446 -0.437024 -34.2579
ltibia 30.7473
lfoot -40.9499 27.1419
ltoes -6.33793
597
root -1.8981 16.7127 22.9477 -159.939 -18.2518 -181.332
lowerback -19.9766 -4.98399 -3.83772
upperback -10.6126 -7.85999 0.928069
thorax 0.175649 -4.59307 1.56844
lowerneck 4.86035 3.03082 -0.380252
upperneck 34.4671 -3.17271 4.07579
head 10.3477 -3.45576 0.905007
rclavicle 4.29126e-014 1.75924e-014
rhumerus 58.5007 -9.85804 -49.2443
rradius 80.6943
rwrist -82.0485
rhand -2.89004 6.75541
rfingers 7.12502
rthumb 22.8195 -21.9147
lclavicle 4.29126e-014 1.75924e-014
lhumerus 56.7701 6.32912 31.2657
lradius 90.1519
lwrist 49.4067
lhand -7.09294 19.96
lfingers 7.12502
lthumb 18.7814 49.0733
rfemur 112.87 -192.665 -182.804
rtibia 44.0112
rfoot -61.284 -0.610653
rtoes 62.455
lfemur -23.6011 -0.784072 -34.4832
ltibia 30.5529
lfoot -41.2722 27.2345
ltoes -5.88931
598
root -1.89483 16.7147 22.9408 -160.054 -18.2799 -181.156
lowerback -20.4839 -4.99955 -3.94893
upperback -10.6072 -7.86282 1.00158
thorax 0.455369 -4.60157 1.64956
lowerneck 4.28939 3.06456 -0.53849
upperneck 35.0335 -3.29937 4.27928
head 10.6868 -3.5311 0.980284
rclavicle 7.05686e-014 3.06128e-014
rhumerus 55.7542 -9.47464 -46.439
rradius 83.4211
rwrist -76.9687
rhand -3.77278 8.02461
rfingers 7.12502
rthumb 21.9721 -20.7475
lclavicle 7.05686e-014 3.06128e-014
lhumerus 54.2395 5.37489 29.0743
lradius 93.1069
lwrist 42.5407
lhand -8.66917 20.2468
lfingers 7.12502
lthumb 17.2649 49.4999
rfemur 112.941 -192.655 -182.498
rtibia 43.9771
rfoot -61.2649 -1.07359
rtoes 62.331
lfemur -23.5289 -1.15691 -34.2423
ltibia 30.5478
lfoot -41.1426 27.3146
ltoes -5.53595
599
root -1.89391 16.7188 22.9312 -160.241 -18.4447 -180.657
lowerback -20.9471 -4.92149 -3.6778
upperback -10.7135 -7.84216 1.08674
thorax 0.550018 -4.61943 1.55434
lowerneck 4.07954 3.05982 -0.576547
upperneck 35.5153 -3.52219 4.44619
head 10.9344 -3.66256 1.01666
rclavicle -1.66979e-014 -1.10325e-014
rhumerus 52.6354 -8.92658 -43.404
rradius 86.236
rwrist -71.6546
rhand -4.90767 8.85579
rfingers 7.12502
rthumb 20.8821 -20.0403
lclavicle -1.66979e-014 -1.10325e-014
lhumerus 51.6713 3.96856 26.8589
lradius 95.901
lwrist 35.0952
lhand -10.4112 20.0921
lfingers 7.12502
lthumb 15.5877 49.484
rfemur 113.11 -192.667 -181.824
rtibia 43.8152
rfoot -61.3543 -0.701923
rtoes 62.4198
lfemur -23.5738 -1.47627 -33.6537
ltibia 30.7036
lfoot -40.4616 26.4994
ltoes -1.80196
600
root -1.89621 16.7216 22.9197 -160.297 -18.6294 -180.328
lowerback -21.436 -4.81125 -3.51213
upperback -10.9286 -7.79414 1.09336
thorax 0.534155 -4.63328 1.44837
lowerneck 3.75043 3.06443 -0.509431
upperneck 36.1519 -3.76641 4.5868
head 11.2735 -3.79722 1.01762
rclavicle -8.78131e-014 -3.21037e-014
rhumerus 49.3401 -8.15943 -40.3074
rradius 89.1277
rwrist -66.0901
rhand -6.13971 9.18303
rfingers 7.12502
rthumb 19.698 -19.8389
lclavicle -8.78131e-014 -3.21037e-014
lhumerus 49.1141 2.11968 24.7915
lradius 98.6191
lwrist 26.603
lhand -12.1717 19.8638
lfingers 7.12502
lthumb 13.8916 49.3798
rfemur 113.257 -192.543 -181.342
rtibia 43.6002
rfoot -61.5095 -0.753596
rtoes 62.3211
lfemur -23.7245 -1.65509 -33.2606
ltibia 30.9411
lfoot -41.795 28.0686
ltoes -6.68246
601
root -1.89698 16.7204 22.9082 -160.237 -18.7409 -180.376
lowerback -21.8026 -4.67048 -3.63252
upperback -11.2531 -7.68732 0.879538
thorax 0.330354 -4.62338 1.30541
lowerneck 3.69411 3.03664 -0.432806
upperneck 36.8218 -4.16593 4.78332
head 11.5909 -4.02677 1.02339
rclavicle 5.93372e-014 3.83654e-014
rhumerus 45.6766 -6.99241 -37.2127
rradius 92.0707
rwrist -59.7079
rhand -7.57393 9.44386
rfingers 7.12502
rthumb 18.3188 -19.7136
lclavicle 5.93372e-014 3.83654e-014
lhumerus 46.6154 -0.249091 22.5986
lradius 101.154
lwrist 17.5425
lhand -14.5808 19.3749
lfingers 7.12502
lthumb 11.5691 49.0356
rfemur 113.37 -192.328 -181.242
rtibia 43.4296
rfoot -61.5507 -0.974982
rtoes 62.1962
lfemur -23.8358 -1.49386 -33.3142
ltibia 31.1367
lfoot -41.9693 29.0969
ltoes -8.84696
602
root -1.9004 16.7175 22.8951 -160.165 -18.8327 -180.448
lowerback -22.1617 -4.52378 -3.78826
upperback -11.6721 -7.59911 0.692733
thorax 0.0236795 -4.63086 1.21571
lowerneck 4.24549 2.99641 -0.61421
upperneck 37.1862 -4.59191 5.03887
head 11.6719 -4.32352 1.10694
rclavicle -1.33683e-014 -2.76311e-014
rhumerus 41.9226 -5.33263 -34.1614
rradius 94.9633
rwrist -52.6109
rhand -8.76567 9.72176
rfingers 7.12502
rthumb 17.172 -19.5394
lclavicle -1.33683e-014 -2.76311e-014
lhumerus 44.0422 -2.8787 20.5929
lradius 103.642
lwrist 9.02474
lhand -17.1932 18.887
lfingers 7.12502
lthumb 9.04896 48.6729
rfemur 113.486 -192.127 -181.158
rtibia 43.3225
rfoot -61.467 -0.653355
rtoes 62.2512
lfemur -23.8608 -1.53845 -33.3723
ltibia 31.2226
lfoot -41.3697 28.3215
ltoes -7.66891
603
root -1.9012 16.7137 22.8821 -160.048 -18.8826 -180.508
lowerback -22.5965 -4.46508 -3.99263
upperback -12.0315 -7.60387 0.631219
thorax -0.156692 -4.67606 1.24972
lowerneck 4.56485 3.00444 -0.876632
upperneck 37.4993 -4.84309 5.21313
head 11.7671 -4.53346 1.18966
rclavicle 2.08724e-014 1.80894e-014
rhumerus 38.596 -3.41596 -31.3219
rradius 97.639
rwrist -45.1196
rhand -9.73851 9.99384
rfingers 7.12502
rthumb 16.2354 -19.3464
lclavicle 2.08724e-014 1.80894e-014
lhumerus 41.3165 -5.32508 18.7647
lradius 106.096
lwrist 0.861207
lhand -18.5588 18.665
lfingers 7.12502
lthumb 7.73098 48.5037
rfemur 113.468 -191.954 -181.075
rtibia 43.3055
rfoot -61.3063 -0.0940124
rtoes 62.4607
lfemur -23.89 -1.54923 -33.4236
ltibia 31.1745
lfoot -40.3597 27.3463
ltoes -6.69794
604
root -1.90215 16.7123 22.8625 -160.044 -19.0119 -180.416
lowerback -23.0592 -4.45812 -4.06228
upperback -12.2432 -7.65428 0.662321
thorax -0.158406 -4.73203 1.27983
lowerneck 4.22591 3.05164 -1.08795
upperneck 38.1037 -5.00735 5.32034
head 12.1107 -4.67259 1.23117
rclavicle -1.43622e-014 3.97569e-016
rhumerus 35.4545 -1.36834 -28.5159
rradius 100.158
rwrist -37.3247
rhand -10.8827 10.8262
rfingers 7.12502
rthumb 15.1335 -18.6005
lclavicle -1.43622e-014 3.97569e-016
lhumerus 38.6103 -7.75089 17.0702
lradius 108.259
lwrist -7.28726
lhand -19.3448 18.5556
lfingers 7.12502
lthumb 6.97231 48.4207
rfemur 113.522 -191.808 -180.814
rtibia 43.3254
rfoot -61.1527 -0.544168
rtoes 62.5176
lfemur -23.7988 -1.58055 -33.2785
ltibia 31.0732
lfoot -40.0122 26.9998
ltoes -6.25331
605
root -1.90272 16.7132 22.8367 -159.896 -19.1774 -180.564
lowerback -23.6094 -4.49529 -4.38738
upperback -12.4104 -7.69765 0.61567
thorax -0.0585828 -4.77486 1.35641
lowerneck 3.58258 3.1018 -1.18331
upperneck 38.8664 -5.14273 5.34869
head 12.588 -4.77477 1.21656
rclavicle 4.2689e-014 3.77691e-014
rhumerus 32.2271 0.813649 -25.736
rradius 102.643
rwrist -29.6178
rhand -12.2672 11.6093
rfingers 7.12502
rthumb 13.7995 -17.913
lclavicle 4.2689e-014 3.77691e-014
lhumerus 35.97 -10.3132 15.5089
lradius 110.077
lwrist -15.158
lhand -20.6777 17.9282
lfingers 7.12502
lthumb 5.68557 47.8319
rfemur 113.545 -191.521 -180.772
rtibia 43.378
rfoot -60.9697 -0.877112
rtoes 62.5717
lfemur -23.7315 -1.5942 -33.3516
ltibia 30.9569
lfoot -40.2747 27.1598
ltoes -6.68235
